<?xml version="1.0" standalone="no"?>
<!DOCTYPE svg PUBLIC "-//W3C//DTD SVG 20010904//EN"
 "http://www.w3.org/TR/2001/REC-SVG-20010904/DTD/svg10.dtd">
<svg version="1.0" xmlns="http://www.w3.org/2000/svg"
 width="729.000000pt" height="729.000000pt" viewBox="0 0 729.000000 729.000000"
 preserveAspectRatio="xMidYMid meet">
<metadata>
Created by potrace 1.14, written by Peter Selinger 2001-2017
</metadata>
<g transform="translate(0.000000,729.000000) scale(0.100000,-0.100000)"
fill="#000000" stroke="none">
<path d="M3448 7285 c-1 -1 -39 -5 -83 -9 -137 -10 -350 -43 -475 -72 -36 -9
-75 -18 -87 -20 -35 -7 -266 -73 -288 -83 -11 -5 -60 -23 -110 -41 -178 -65
-289 -117 -327 -154 -50 -50 -65 -120 -41 -191 41 -118 157 -151 299 -85 242
112 648 228 889 255 33 4 62 9 65 10 3 2 52 7 110 11 184 15 564 9 667 -10 10
-2 45 -7 78 -11 50 -5 139 -22 325 -61 122 -25 383 -115 567 -195 74 -32 126
-49 153 -49 106 0 183 78 183 185 0 57 -18 98 -60 137 -48 45 -420 194 -622
249 -148 40 -339 83 -421 94 -19 3 -44 7 -55 9 -11 2 -53 7 -93 11 -40 4 -98
10 -129 14 -52 8 -537 13 -545 6z"/>
<path d="M490 7199 c-247 -63 -417 -280 -412 -524 3 -161 50 -272 162 -383
143 -142 344 -188 548 -125 l54 16 334 -334 c184 -184 334 -337 334 -341 0 -4
-32 -47 -71 -95 -240 -300 -421 -652 -519 -1014 -16 -59 -32 -122 -35 -140 -3
-19 -10 -52 -15 -74 -13 -59 -22 -114 -35 -225 -21 -176 -21 -506 0 -640 2
-14 9 -61 15 -105 40 -280 146 -608 278 -860 49 -95 63 -113 104 -138 125 -77
282 10 281 155 -1 37 -15 75 -63 175 -108 221 -178 432 -219 659 -30 166 -36
242 -36 434 0 232 17 392 57 544 5 22 11 47 13 57 34 176 163 483 289 687 114
183 190 279 369 460 l122 122 -469 469 -469 470 17 53 c24 70 32 202 17 281
-56 291 -365 488 -651 416z m210 -265 c72 -21 149 -98 171 -171 68 -214 -133
-413 -346 -345 -65 21 -145 99 -167 164 -48 140 28 302 164 349 66 23 109 24
178 3z"/>
<path d="M6615 7209 c-280 -33 -491 -282 -471 -559 6 -88 11 -115 31 -163 l14
-35 -335 -336 c-185 -185 -342 -336 -349 -336 -6 0 -20 9 -30 20 -28 31 -187
149 -300 223 -329 214 -787 382 -1155 422 -36 4 -74 10 -85 12 -37 9 -469 11
-545 3 -41 -5 -100 -12 -130 -15 -72 -9 -265 -48 -365 -75 -265 -72 -592 -216
-658 -289 -109 -121 -5 -323 156 -304 22 2 85 27 141 54 55 28 135 64 176 81
41 16 84 34 95 38 48 21 261 82 330 94 233 43 309 50 520 50 171 0 294 -10
450 -38 236 -43 561 -163 745 -274 19 -12 44 -26 55 -31 26 -11 129 -79 230
-153 44 -31 100 -72 125 -89 56 -41 250 -236 250 -252 0 -7 211 199 469 457
l469 469 74 -21 c229 -68 482 24 606 221 64 103 82 160 86 277 10 248 -160
473 -402 535 -73 19 -122 22 -197 14z m182 -288 c208 -110 205 -391 -6 -493
-55 -27 -157 -29 -214 -4 -99 43 -168 148 -168 255 -1 120 67 212 190 258 48
18 149 10 198 -16z"/>
<path d="M498 5369 c-15 -4 -28 -6 -30 -4 -2 2 -21 -9 -43 -23 -45 -30 -92
-116 -165 -300 -71 -180 -156 -459 -175 -572 -3 -19 -10 -51 -15 -70 -15 -59
-45 -259 -57 -385 -10 -99 -10 -585 0 -678 15 -138 43 -317 67 -422 11 -45 21
-92 24 -105 40 -195 203 -638 263 -719 30 -39 94 -71 143 -71 79 0 159 63 181
142 14 54 8 84 -46 207 -106 240 -190 531 -234 811 -29 188 -35 265 -35 495 0
185 4 274 19 397 3 18 7 56 11 83 23 193 103 496 185 708 39 99 52 128 90 213
41 88 40 155 -3 216 -40 57 -123 93 -180 77z"/>
<path d="M6703 5245 c-57 -27 -77 -49 -97 -108 -19 -57 -13 -92 39 -212 121
-279 226 -658 250 -910 4 -38 9 -79 12 -90 9 -37 11 -539 3 -605 -4 -36 -11
-92 -15 -125 -3 -33 -8 -67 -10 -75 -2 -8 -6 -33 -9 -55 -4 -22 -11 -62 -16
-90 -6 -27 -12 -59 -14 -70 -14 -71 -63 -248 -98 -350 -36 -107 -58 -163 -144
-365 -28 -66 -30 -112 -5 -165 48 -105 165 -140 267 -80 38 22 50 39 88 118
140 296 264 712 301 1012 4 28 8 57 10 65 20 78 29 674 12 830 -19 180 -54
375 -102 563 -55 221 -208 622 -256 673 -55 58 -142 74 -216 39z"/>
<path d="M5890 5085 c-46 -21 -68 -42 -91 -88 -35 -68 -28 -109 44 -258 84
-173 164 -392 192 -523 2 -11 6 -32 9 -46 5 -22 18 -90 31 -170 3 -14 7 -52
11 -85 3 -33 7 -78 10 -100 12 -113 1 -398 -21 -530 -48 -284 -107 -474 -216
-703 -54 -111 -163 -299 -211 -362 -103 -136 -170 -214 -275 -319 l-124 -125
469 -470 470 -471 -20 -55 c-21 -59 -30 -211 -16 -282 30 -150 142 -294 283
-364 365 -180 780 76 779 481 -1 233 -142 429 -365 506 -107 37 -263 33 -370
-9 -25 -10 -41 5 -364 328 l-338 339 29 36 c170 214 272 369 371 565 120 239
206 505 259 795 9 50 9 53 18 145 5 41 10 89 12 105 6 41 6 415 0 441 -2 11
-7 52 -10 90 -4 38 -8 80 -11 94 -2 14 -9 55 -15 92 -29 183 -117 471 -204
663 -78 170 -117 235 -158 263 -49 32 -128 39 -178 17z m895 -4224 c132 -59
196 -203 150 -340 -32 -98 -141 -179 -246 -183 -197 -7 -338 199 -259 378 38
87 100 137 195 159 60 14 106 10 160 -14z"/>
<path d="M3127 4984 c-1 -1 -54 -5 -117 -8 -63 -4 -133 -9 -155 -11 -167 -14
-202 -17 -215 -20 -42 -8 -126 -19 -132 -17 -4 1 -31 -3 -60 -8 -29 -6 -69
-13 -88 -16 -83 -14 -261 -64 -314 -89 -58 -28 -135 -99 -184 -171 l-27 -40
-98 -2 c-108 -1 -147 -14 -198 -66 -65 -66 -115 -181 -136 -317 -4 -31 -1 -39
22 -57 31 -25 63 -28 89 -9 11 8 29 60 50 142 38 151 58 198 96 225 27 19 45
25 117 34 30 4 31 3 23 -20 -5 -13 -16 -36 -24 -52 -24 -46 -85 -236 -102
-317 -2 -11 -8 -45 -14 -75 -6 -30 -12 -66 -15 -80 -6 -30 -13 -79 -21 -145
-3 -27 -7 -61 -9 -75 -2 -14 -7 -83 -10 -155 -4 -71 -9 -133 -11 -136 -2 -4 3
-12 11 -19 9 -7 22 -28 31 -46 22 -46 110 -93 203 -109 19 -3 37 -7 40 -9 3
-2 29 -7 56 -11 28 -4 61 -9 75 -11 50 -8 148 -14 278 -19 73 -2 137 -7 142
-10 6 -3 10 -3 10 2 0 4 39 8 88 9 120 1 284 11 362 23 164 25 169 26 237 46
31 9 57 15 59 13 6 -7 -171 -136 -236 -172 -66 -36 -154 -63 -238 -73 -64 -8
-485 -8 -602 0 -88 7 -118 9 -254 22 -102 10 -199 83 -251 188 -15 32 -30 55
-33 53 -2 -3 -6 -66 -7 -141 -5 -273 42 -366 213 -427 58 -20 75 -24 127 -33
17 -3 37 -8 45 -10 15 -4 55 -9 175 -22 89 -9 611 -10 775 0 150 8 294 18 296
21 1 0 5 80 8 176 6 154 11 247 21 394 2 30 7 41 24 47 11 5 21 5 21 1 0 -4 4
-2 8 5 7 10 69 41 252 125 82 38 178 82 240 110 30 14 87 41 125 59 39 18 72
33 75 34 3 0 30 13 60 27 30 14 102 48 160 75 58 28 144 69 192 92 85 41 89
42 160 36 40 -3 87 -9 103 -12 17 -3 46 -7 65 -8 19 -2 58 -5 85 -8 28 -3 77
-8 110 -12 33 -3 76 -8 95 -11 19 -2 75 -9 125 -14 49 -6 106 -12 125 -15 55
-7 140 -16 195 -20 28 -3 61 -7 75 -10 26 -6 182 -18 213 -17 9 0 17 -4 17
-11 0 -8 3 -8 11 0 7 7 20 8 33 4 44 -15 51 -9 50 44 -2 74 -11 116 -32 144
-24 34 -106 75 -353 175 -192 79 -542 225 -634 266 -199 88 -766 326 -950 399
-126 50 -251 100 -277 110 l-47 19 -20 -48 c-36 -82 -87 -297 -111 -460 -5
-36 -12 -75 -14 -86 -2 -12 -9 -66 -16 -120 -6 -55 -13 -110 -15 -124 -2 -14
-7 -52 -10 -85 -3 -33 -8 -76 -11 -95 -2 -19 -6 -60 -9 -90 -17 -190 -28 -267
-39 -294 -20 -48 -69 -83 -149 -107 -40 -12 -76 -24 -82 -27 -7 -3 -7 -2 0 5
6 5 38 20 73 33 65 24 76 32 78 65 0 11 4 72 8 135 4 63 9 129 11 145 2 17 7
62 11 100 16 167 22 222 45 366 28 175 26 165 38 229 6 30 13 66 16 80 3 14
16 76 31 137 26 112 26 113 52 108 36 -6 52 6 55 41 1 20 -3 29 -13 30 -8 1
-23 2 -32 3 -14 1 -15 6 -7 33 5 18 9 36 9 40 0 6 -316 7 -323 2z m1279 -733
c-3 -91 -6 -181 -6 -198 1 -18 -4 -33 -9 -33 -5 0 -16 -3 -25 -6 -11 -4 -14
-1 -11 14 2 10 6 55 10 98 4 43 9 93 11 109 2 17 7 64 10 105 17 188 28 137
20 -89z m910 -213 c-3 -57 -5 -109 -6 -115 0 -7 -7 -13 -16 -13 -8 0 -13 4
-10 8 3 5 8 46 12 91 3 46 7 90 9 99 2 9 4 20 4 25 1 4 4 7 7 7 3 0 4 -46 0
-102z m-2261 -608 c-3 -5 -12 -10 -18 -10 -7 0 -6 4 3 10 19 12 23 12 15 0z"/>
<path d="M4500 3888 c-74 -19 -76 -20 -195 -154 -44 -49 -84 -94 -90 -100 -5
-6 -41 -46 -80 -89 -38 -43 -84 -95 -102 -114 -43 -47 -34 -51 19 -8 24 19 50
37 58 39 8 2 18 6 21 11 17 23 288 184 316 188 5 1 19 6 33 11 25 10 38 12
141 26 31 4 322 7 647 5 326 -1 592 1 592 6 0 4 -46 16 -102 25 -57 10 -110
20 -119 21 -9 2 -40 6 -69 10 -29 4 -62 9 -74 11 -12 2 -41 6 -66 9 -25 3 -61
8 -80 11 -19 2 -53 7 -75 9 -44 6 -106 14 -145 20 -14 2 -50 6 -80 10 -30 3
-68 7 -85 9 -16 2 -55 7 -85 10 -30 4 -89 11 -130 16 -41 5 -104 12 -139 15
-36 3 -67 7 -70 9 -3 2 -22 -1 -41 -6z"/>
<path d="M4446 3433 c-1 -2 -20 -5 -42 -7 -60 -7 -108 -17 -114 -25 -3 -4 -16
-8 -29 -8 -13 -1 -28 -8 -32 -15 -5 -7 -9 -9 -9 -4 0 5 -7 3 -15 -4 -8 -7 -15
-9 -15 -4 0 5 -4 5 -8 -1 -4 -5 -27 -21 -52 -34 -25 -14 -58 -34 -75 -45 -38
-26 -148 -135 -162 -160 -7 -13 -22 -19 -52 -20 -22 0 -41 -3 -41 -6 0 -3 -8
-6 -17 -7 -32 -3 -73 -22 -73 -35 0 -10 -2 -10 -9 0 -6 10 -10 10 -21 -3 -7
-8 -19 -15 -27 -15 -7 0 -16 -7 -19 -15 -4 -8 -11 -15 -17 -15 -5 0 -33 -24
-61 -54 -68 -72 -76 -82 -76 -100 0 -8 -8 -20 -17 -25 -10 -6 -14 -11 -10 -11
4 0 2 -10 -5 -22 -7 -13 -13 -26 -14 -30 -1 -5 -3 -11 -4 -15 -1 -5 -2 -11 -1
-15 0 -5 -5 -8 -12 -8 -8 0 -7 -4 3 -10 8 -5 10 -10 3 -10 -6 0 -10 -11 -8
-25 1 -14 -1 -25 -4 -25 -7 0 -5 -94 3 -130 3 -14 8 -38 12 -55 3 -16 12 -40
20 -52 8 -13 12 -23 9 -23 -10 0 58 -94 91 -125 46 -45 74 -66 74 -57 0 4 4 2
8 -4 10 -14 88 -44 96 -37 3 4 6 2 6 -4 0 -5 6 -10 13 -10 31 -2 87 -12 97
-18 5 -3 10 -2 10 3 0 5 25 8 55 8 30 -1 55 1 55 4 0 3 23 5 50 5 28 0 50 3
50 7 0 11 23 6 32 -7 5 -7 8 -6 8 1 0 5 19 11 43 13 60 3 106 9 117 16 6 3 10
1 10 -5 0 -7 6 -8 18 -2 15 8 51 12 137 15 11 0 23 6 27 11 5 7 8 7 8 -2 0 -9
5 -10 19 -3 10 6 21 7 25 4 3 -3 6 0 6 8 0 8 -23 26 -50 41 -28 16 -50 33 -50
39 0 5 -4 7 -10 4 -5 -3 -10 -1 -10 6 0 7 -3 10 -6 6 -6 -5 -15 0 -49 31 -7 6
-18 12 -24 12 -5 0 -14 6 -18 13 -8 13 -88 67 -98 67 -12 0 -34 28 -28 34 4 3
-3 6 -15 6 -12 0 -22 5 -22 10 0 6 -7 10 -15 10 -20 0 -19 -9 3 -33 9 -11 11
-17 5 -13 -14 8 -18 -6 -6 -18 11 -10 30 -91 25 -104 -2 -7 -8 -9 -14 -6 -6 4
-14 0 -19 -7 -5 -8 -9 -9 -9 -3 0 11 -28 12 -45 2 -6 -3 -19 -4 -29 -2 -11 1
-28 -2 -38 -7 -13 -7 -18 -6 -18 2 0 8 -4 8 -12 1 -7 -5 -24 -8 -38 -7 -14 1
-30 -2 -37 -7 -7 -5 -14 -5 -18 2 -3 6 -11 7 -17 4 -14 -9 -118 16 -118 28 0
5 -4 7 -8 4 -9 -5 -64 35 -86 62 -6 7 -18 22 -28 32 -9 10 -14 21 -10 24 3 3
1 6 -5 6 -9 0 -14 10 -23 48 -1 4 -6 13 -12 20 -8 8 -7 12 3 12 10 0 10 3 3 8
-12 8 -24 72 -14 72 4 0 6 16 3 35 -2 19 1 35 6 35 6 0 8 7 5 15 -4 8 -1 15 7
15 7 0 10 3 6 6 -10 11 31 82 71 122 40 41 121 92 146 92 9 0 16 3 16 8 0 4
30 7 68 6 54 -2 70 1 85 17 10 10 15 19 11 19 -6 0 39 81 60 109 20 25 123
126 152 148 16 13 35 23 42 23 6 0 12 4 12 9 0 9 48 26 63 23 4 -1 7 2 7 7 0
10 39 27 53 23 4 -1 7 3 7 9 0 5 5 7 10 4 6 -4 16 -2 23 3 7 5 20 8 30 7 9 -2
17 2 17 8 0 5 3 7 7 4 3 -4 13 -1 21 6 13 10 14 9 7 -3 -7 -12 -6 -13 6 -3 9
7 40 14 70 15 30 2 60 7 67 11 6 5 12 4 12 -1 0 -5 10 -8 23 -7 12 1 30 -2 41
-7 12 -7 22 -6 29 1 13 13 6 22 -22 24 -11 1 -21 4 -21 8 0 4 -8 6 -17 4 -10
-1 -27 5 -37 14 -11 9 -16 10 -12 3 5 -8 1 -11 -13 -9 -11 2 -23 6 -27 9 -3 4
-17 3 -30 -2 -13 -5 -24 -6 -24 -1 0 6 -77 10 -84 4z"/>
<path d="M4543 3294 c-26 -7 -51 -10 -55 -7 -5 2 -8 0 -8 -4 0 -5 -10 -9 -22
-10 -11 -1 -24 -7 -28 -13 -4 -7 -10 -11 -14 -10 -12 2 -76 -24 -76 -32 0 -4
-5 -8 -11 -8 -16 0 -92 -55 -145 -106 -51 -48 -35 -46 41 6 22 15 58 33 80 41
22 8 42 17 45 20 3 3 12 6 20 6 24 1 69 11 81 19 6 3 15 0 20 -7 5 -8 9 -9 9
-3 0 9 23 10 75 2 6 0 20 2 33 6 13 5 22 3 22 -3 0 -6 14 -11 30 -11 17 0 30
-5 30 -12 0 -9 4 -8 10 2 6 10 10 11 10 3 0 -7 9 -13 19 -13 11 0 23 -4 26
-10 3 -5 14 -10 23 -10 38 0 152 -110 188 -180 30 -57 45 -74 54 -62 3 4 10 7
15 8 21 1 71 17 84 28 12 9 13 8 7 -2 -7 -11 -4 -12 10 -4 23 12 114 10 133
-2 10 -7 12 -5 6 5 -6 11 -5 12 6 2 7 -7 20 -13 29 -13 9 0 26 -9 38 -20 12
-11 24 -20 27 -20 11 0 71 -66 82 -90 30 -66 33 -88 18 -109 -7 -11 -7 -13 3
-7 8 5 12 -1 12 -19 0 -14 -4 -24 -8 -21 -5 3 -6 -9 -4 -26 3 -20 1 -29 -6
-24 -6 3 -9 -1 -8 -11 5 -27 -91 -156 -119 -163 -3 0 -26 -10 -52 -22 -26 -11
-63 -23 -83 -25 -19 -3 -36 -9 -38 -14 -2 -4 -14 -4 -28 1 -15 6 -24 6 -24 0
0 -5 -7 -7 -15 -4 -9 4 -15 0 -15 -7 0 -11 -3 -11 -10 1 -5 8 -10 11 -10 5 0
-6 -27 -10 -60 -10 -33 1 -60 -3 -60 -8 0 -5 -7 -4 -15 3 -8 7 -15 8 -15 3 0
-6 -8 -10 -17 -10 -87 0 -114 -4 -107 -15 6 -10 4 -10 -8 0 -11 8 -18 9 -22 3
-4 -7 -15 -7 -31 -1 -15 6 -27 6 -30 -1 -4 -5 -11 -7 -16 -4 -5 4 -9 1 -9 -5
0 -7 -6 -8 -18 -1 -10 5 -24 6 -31 2 -7 -5 -23 -6 -35 -3 -21 5 -21 5 -2 -16
11 -12 25 -22 33 -22 7 0 13 -4 13 -10 0 -5 6 -10 14 -10 8 0 16 -3 18 -8 3
-8 135 -92 144 -92 3 0 12 -7 21 -15 8 -8 18 -13 23 -10 4 3 11 -2 14 -11 3
-8 10 -13 15 -9 5 3 16 -3 23 -12 7 -10 20 -19 28 -21 8 -2 17 -8 18 -13 2 -5
8 -7 13 -3 5 3 12 -2 15 -10 3 -9 10 -13 15 -10 5 3 9 1 9 -4 0 -6 6 -12 13
-15 15 -6 21 30 6 38 -5 4 -7 11 -4 16 4 5 2 9 -4 9 -5 0 -9 8 -9 18 1 23 -5
46 -14 53 -5 3 -2 12 5 21 11 15 62 23 205 30 23 1 42 5 42 9 0 4 6 6 13 6 24
-2 87 15 87 24 0 5 7 9 16 9 36 0 211 139 196 155 -3 3 0 5 7 5 6 0 16 11 21
25 5 14 14 25 20 25 6 0 8 5 5 10 -3 6 -1 10 5 10 6 0 8 5 5 11 -4 6 1 17 11
25 11 9 12 12 4 8 -13 -7 -13 -5 -1 9 7 9 10 24 7 33 -6 15 -4 15 11 3 14 -11
15 -12 9 0 -5 8 -3 17 5 22 12 7 11 9 -1 9 -13 0 -13 2 -1 9 12 8 12 12 2 24
-7 9 -8 18 -3 21 6 3 6 24 1 52 -5 25 -6 50 -3 55 3 5 0 9 -7 9 -9 0 -9 3 0
14 9 10 8 15 -4 19 -8 4 -12 13 -9 22 3 8 1 15 -5 15 -6 0 -8 7 -5 15 4 8 1
15 -5 15 -6 0 -10 3 -10 8 3 20 -2 32 -16 32 -8 0 -15 9 -15 21 0 11 -4 17
-10 14 -5 -3 -10 0 -10 7 0 13 -70 83 -70 70 0 -4 -5 1 -11 11 -5 9 -17 17
-24 17 -8 0 -15 3 -15 8 0 4 -11 12 -25 19 -19 8 -23 8 -18 0 3 -7 -2 -5 -13
4 -10 9 -25 14 -31 12 -7 -3 -13 1 -13 7 0 7 -8 10 -20 7 -11 -3 -20 -2 -20 1
0 4 -43 7 -95 7 -52 0 -95 -3 -95 -7 0 -13 -33 -1 -42 16 -17 29 -72 86 -85
86 -7 0 -17 8 -22 18 -6 9 -11 13 -11 9 0 -4 -12 4 -27 18 -16 14 -34 23 -42
20 -8 -3 -17 -1 -21 5 -3 5 -18 11 -33 12 -15 1 -27 5 -27 9 0 15 -191 17
-247 3z"/>
<path d="M1732 2748 c57 -75 161 -133 254 -142 163 -16 1054 -27 1114 -13 14
3 33 6 42 6 23 1 68 48 68 71 0 17 -6 18 -77 13 -101 -8 -955 -8 -1053 0 -126
10 -272 47 -327 83 -38 24 -47 16 -21 -18z"/>
<path d="M1317 1580 l-478 -479 -57 20 c-66 24 -206 33 -272 18 -330 -72 -514
-404 -398 -718 58 -157 202 -287 367 -331 103 -27 250 -15 354 29 104 45 208
145 263 253 54 107 70 254 39 373 -9 33 -18 69 -21 80 -4 16 67 92 330 354
313 312 336 333 354 320 20 -15 196 -151 222 -173 45 -36 246 -155 358 -211
265 -133 560 -228 822 -265 47 -6 96 -14 110 -16 116 -18 390 -23 564 -11 55
4 102 9 105 11 3 2 34 7 69 10 148 16 377 73 572 143 147 53 373 160 419 198
54 46 79 140 53 206 -16 40 -63 90 -99 105 -67 28 -111 19 -263 -55 -209 -103
-478 -190 -660 -216 -24 -4 -47 -8 -51 -10 -3 -2 -39 -7 -80 -10 -41 -4 -90
-8 -109 -10 -56 -7 -321 -7 -370 -1 -25 3 -70 8 -100 11 -60 6 -74 8 -195 31
-399 74 -882 314 -1141 569 -35 34 -66 60 -69 57 -3 -3 -5 -1 -5 5 0 5 -17 28
-37 51 -21 23 -54 64 -73 91 -19 28 -37 50 -40 50 -3 0 -220 -215 -483 -479z
m-580 -729 c162 -83 198 -305 70 -431 -82 -81 -199 -103 -300 -57 -216 98
-220 385 -8 497 61 32 167 28 238 -9z"/>
<path d="M2030 695 c-46 -21 -68 -42 -92 -89 -38 -75 -18 -170 48 -224 66 -55
416 -191 659 -257 88 -24 296 -69 365 -79 19 -2 58 -8 85 -12 28 -3 58 -8 68
-10 105 -19 654 -26 792 -11 130 14 162 19 220 28 33 5 71 12 85 14 297 45
854 233 948 319 67 60 78 165 26 238 -58 82 -151 103 -254 56 -54 -25 -111
-49 -207 -87 -96 -37 -338 -111 -413 -125 -14 -2 -56 -11 -95 -19 -82 -18
-122 -25 -190 -33 -27 -3 -56 -7 -62 -9 -78 -25 -679 -26 -809 -1 -10 2 -39 7
-64 10 -25 3 -55 8 -67 10 -11 3 -43 8 -70 12 -55 9 -49 8 -88 17 -16 4 -39 9
-50 11 -148 31 -432 126 -589 198 -125 56 -189 68 -246 43z"/>
</g>
</svg>
