<svg xmlns="http://www.w3.org/2000/svg" xmlns:xlink="http://www.w3.org/1999/xlink" width="200" zoomAndPan="magnify" viewBox="0 0 150 149.999998" height="200" preserveAspectRatio="xMidYMid meet" version="1.0"><defs><clipPath id="7d6acca69e"><path d="M 9.085938 27.53125 L 150 27.53125 L 150 122.78125 L 9.085938 122.78125 Z M 9.085938 27.53125 " clip-rule="nonzero"/></clipPath><clipPath id="d87f948274"><path d="M 15.039062 15 L 95.109375 15 L 95.109375 87.75 L 15.039062 87.75 Z M 15.039062 15 " clip-rule="nonzero"/></clipPath><clipPath id="f3037b2b67"><path d="M 16.105469 19 L 95.109375 19 L 95.109375 87.75 L 16.105469 87.75 Z M 16.105469 19 " clip-rule="nonzero"/></clipPath></defs><g clip-path="url(#7d6acca69e)"><path fill="#ffffff" d="M 148.660156 72.535156 L 125.679688 45.0625 C 124.601562 43.777344 123.023438 43.039062 121.347656 43.039062 L 100.667969 43.039062 L 100.667969 33.1875 C 100.667969 30.078125 98.136719 27.542969 95.023438 27.542969 L 14.722656 27.542969 C 11.609375 27.542969 9.074219 30.078125 9.074219 33.1875 L 9.074219 103.628906 C 9.074219 106.742188 11.609375 109.277344 14.722656 109.277344 L 26.078125 109.277344 C 26.902344 116.660156 33.179688 122.421875 40.78125 122.421875 C 48.386719 122.421875 54.664062 116.660156 55.488281 109.277344 L 95.023438 109.277344 C 96.050781 109.277344 97.011719 108.996094 97.84375 108.511719 C 98.671875 108.992188 99.632812 109.273438 100.660156 109.273438 L 107.789062 109.273438 C 108.613281 116.660156 114.894531 122.421875 122.496094 122.421875 C 130.097656 122.421875 136.378906 116.660156 137.203125 109.273438 L 144.332031 109.273438 C 147.445312 109.273438 149.976562 106.742188 149.976562 103.628906 L 149.976562 76.15625 C 149.976562 74.832031 149.507812 73.546875 148.660156 72.535156 Z M 14.722656 33.195312 L 95.015625 33.1875 L 95.015625 48.652344 C 95.015625 48.664062 95.015625 48.671875 95.015625 48.683594 L 95.015625 103.621094 L 55.03125 103.621094 C 53.28125 97.398438 47.558594 92.816406 40.78125 92.816406 C 34.007812 92.816406 28.28125 97.398438 26.535156 103.625 L 14.730469 103.628906 Z M 40.78125 116.769531 C 35.738281 116.769531 31.632812 112.664062 31.632812 107.621094 C 31.632812 102.574219 35.738281 98.472656 40.78125 98.472656 C 45.828125 98.472656 49.929688 102.574219 49.929688 107.621094 C 49.929688 112.664062 45.828125 116.769531 40.78125 116.769531 Z M 122.496094 116.769531 C 117.453125 116.769531 113.347656 112.664062 113.347656 107.621094 C 113.347656 102.574219 117.453125 98.472656 122.496094 98.472656 C 127.539062 98.472656 131.644531 102.574219 131.644531 107.621094 C 131.644531 112.664062 127.539062 116.769531 122.496094 116.769531 Z M 136.742188 103.621094 C 134.992188 97.394531 129.269531 92.816406 122.496094 92.816406 C 115.71875 92.816406 109.996094 97.398438 108.246094 103.621094 L 100.667969 103.628906 L 100.667969 48.691406 L 121.339844 48.691406 L 144.324219 76.15625 L 144.332031 103.621094 Z M 136.742188 103.621094 " fill-opacity="1" fill-rule="nonzero"/></g><path fill="#ffffff" d="M 120.871094 54.929688 C 120.335938 54.285156 119.542969 53.914062 118.707031 53.914062 L 106.292969 53.914062 C 104.738281 53.914062 103.476562 55.175781 103.476562 56.734375 L 103.476562 70.820312 C 103.476562 72.378906 104.738281 73.636719 106.292969 73.636719 L 130.445312 73.636719 C 132.832031 73.636719 134.136719 70.851562 132.609375 69.015625 Z M 120.871094 54.929688 " fill-opacity="1" fill-rule="nonzero"/><g clip-path="url(#d87f948274)"><path fill="#ffde59" d="M 16.09375 75.769531 L 48.03125 19.117188 C 51.125 13.628906 59.027344 13.628906 62.121094 19.117188 L 94.058594 75.769531 C 97.097656 81.160156 93.199219 87.828125 87.011719 87.828125 L 23.140625 87.828125 C 16.953125 87.828125 13.054688 81.160156 16.09375 75.769531 " fill-opacity="1" fill-rule="nonzero"/></g><g clip-path="url(#f3037b2b67)"><path fill="#ffde59" d="M 94.058594 75.769531 L 62.121094 19.117188 C 60.421875 16.097656 86.207031 71.730469 86.207031 71.730469 C 89.246094 77.121094 85.351562 83.789062 79.160156 83.789062 L 16.136719 83.789062 C 17.5 86.144531 20.03125 87.828125 23.140625 87.828125 L 87.011719 87.828125 C 93.199219 87.828125 97.097656 81.160156 94.058594 75.769531 " fill-opacity="1" fill-rule="nonzero"/></g><path fill="#ffffff" d="M 55.074219 66.929688 C 52.589844 66.929688 50.578125 68.945312 50.578125 71.425781 C 50.578125 73.910156 52.589844 75.925781 55.074219 75.925781 C 57.558594 75.925781 59.574219 73.910156 59.574219 71.425781 C 59.574219 68.945312 57.558594 66.929688 55.074219 66.929688 " fill-opacity="1" fill-rule="nonzero"/><path fill="#ffffff" d="M 55.074219 30.945312 C 51.132812 30.945312 48.042969 34.328125 48.398438 38.253906 L 50.171875 57.960938 C 50.402344 60.496094 52.527344 62.4375 55.074219 62.4375 C 57.625 62.4375 59.75 60.496094 59.976562 57.960938 L 61.753906 38.253906 C 62.109375 34.328125 59.019531 30.945312 55.074219 30.945312 " fill-opacity="1" fill-rule="nonzero"/></svg>